<?xml version="1.0" encoding="utf-8"?>
<!-- Generator: Adobe Illustrator 17.1.0, SVG Export Plug-In . SVG Version: 6.00 Build 0)  -->
<!DOCTYPE svg PUBLIC "-//W3C//DTD SVG 1.1//EN" "http://www.w3.org/Graphics/SVG/1.1/DTD/svg11.dtd">
<svg version="1.1" id="Calque_1" xmlns="http://www.w3.org/2000/svg" xmlns:xlink="http://www.w3.org/1999/xlink" x="0px" y="0px"
	 viewBox="152.1 1.6 88.8 149.9" enable-background="new 152.1 1.6 88.8 149.9" xml:space="preserve">
<path fill="#FFFFFF" d="M208,88.7v18.4l22.2-0.3v22.6l-22.2-0.3v22.6l-22.6-0.3v-21.9l-22.2-0.3v-21.9l22.2-0.3v-18
	c-4.9-1.4-9.3-3.4-13.4-5.9c-4.1-2.5-7.5-5.8-10.4-9.7c-2.9-3.9-5.2-8.2-6.9-12.7c-1.7-4.5-2.6-9.4-2.6-14.7c0-6,1.2-11.7,3.5-17.2
	c2.3-5.4,5.5-10.1,9.5-14.1c4-3.9,8.8-7.1,14.2-9.5c5.4-2.4,11.2-3.5,17.2-3.3c6-0.2,11.7,0.9,17.2,3.3c5.4,2.4,10.2,5.6,14.2,9.5
	c4,3.9,7.2,8.6,9.5,14.1c2.3,5.4,3.5,11.2,3.5,17.2c0,5.3-0.8,10.2-2.4,14.7c-1.6,4.5-3.9,8.7-6.9,12.7c-3,3.9-6.5,7.2-10.6,9.7
	c-4.1,2.5-8.4,4.6-13,6.2L208,88.7L208,88.7z M187.9,25.4c-2.8,1-5.2,2.6-7.1,4.7c-2,2.1-3.5,4.5-4.7,7.1c-1.2,2.7-1.7,5.6-1.7,8.8
	c0,2.8,0.6,5.6,1.7,8.3c1.2,2.8,2.7,5.2,4.7,7.1c2,2,4.3,3.6,7.1,4.9c2.8,1.3,5.7,1.8,8.7,1.6c3,0.2,5.9-0.3,8.7-1.6
	c2.8-1.3,5.1-2.9,7.1-4.9c2-2,3.5-4.3,4.7-7.1c1.2-2.8,1.7-5.6,1.7-8.3c0-3.2-0.6-6.2-1.7-8.8c-1.2-2.7-2.7-5-4.7-7.1
	c-2-2.1-4.3-3.6-7.1-4.7c-2.8-1-5.7-1.7-8.7-1.9C193.5,23.7,190.6,24.3,187.9,25.4z"/>
</svg>
