<?xml version="1.0" encoding="utf-8"?>
<!-- Generator: Adobe Illustrator 17.1.0, SVG Export Plug-In . SVG Version: 6.00 Build 0)  -->
<!DOCTYPE svg PUBLIC "-//W3C//DTD SVG 1.1//EN" "http://www.w3.org/Graphics/SVG/1.1/DTD/svg11.dtd">
<svg version="1.1" id="Calque_1" xmlns="http://www.w3.org/2000/svg" xmlns:xlink="http://www.w3.org/1999/xlink" x="0px" y="0px"
	 viewBox="3 1.6 149.9 149.9" enable-background="new 3 1.6 149.9 149.9" xml:space="preserve">
<path fill="#FFFFFF" d="M152.9,1.6v66l-22.3-22.3l-21,21c1.2,2.1,2.2,4.2,3.1,6.5c0.9,2.2,1.6,4.5,2.2,6.9c0.6,2.4,1.1,4.8,1.6,7.1
	c0.4,2.4,0.7,4.9,0.7,7.6c0,7.7-1.6,15.1-4.7,22.1c-3.1,7-7.2,13.1-12.3,18.3c-5.1,5.2-11.1,9.3-18.1,12.3c-7,3-14.4,4.5-22.1,4.5
	c-8,0-15.5-1.5-22.5-4.5c-7-3-13-7.1-18.1-12.3c-5.1-5.2-9.1-11.3-12-18.3c-3-7-4.5-14.3-4.5-22.1c0-8,1.5-15.5,4.5-22.3
	c3-6.8,7-12.9,12-18.1c5.1-5.2,11.1-9.3,18.1-12.3c7-3,14.5-4.5,22.5-4.5c2.7,0,5.3,0.2,7.8,0.4c2.5,0.3,5.1,0.8,7.6,1.6
	c2.5,0.7,5,1.6,7.4,2.7c2.4,1,4.6,2.3,6.7,3.8l21-21.4L87.8,1.6H152.9z M33.8,105.5c1.5,3.6,3.5,6.6,6,9.1c2.5,2.5,5.5,4.5,8.9,6
	c3.4,1.5,7.2,2.2,11.4,2.2c3.9,0,7.5-0.7,10.9-2.2c3.4-1.5,6.5-3.5,9.1-6c2.7-2.5,4.8-5.6,6.2-9.1c1.5-3.6,2.2-7.3,2.2-11.2
	c0-3.9-0.7-7.6-2.2-11.2c-1.5-3.6-3.6-6.6-6.2-9.1c-2.7-2.5-5.7-4.5-9.1-6c-3.4-1.5-7.1-2.2-10.9-2.2c-4.2,0-8,0.7-11.4,2.2
	c-3.4,1.5-6.4,3.5-8.9,6c-2.5,2.5-4.5,5.6-6,9.1c-1.5,3.6-2.2,7.3-2.2,11.2C31.6,98.3,32.3,102,33.8,105.5z"/>
</svg>
