<?xml version="1.0" encoding="utf-8"?>
<!-- Generator: Adobe Illustrator 17.1.0, SVG Export Plug-In . SVG Version: 6.00 Build 0)  -->
<!DOCTYPE svg PUBLIC "-//W3C//DTD SVG 1.1//EN" "http://www.w3.org/Graphics/SVG/1.1/DTD/svg11.dtd">
<svg version="1.1" id="Calque_1" xmlns="http://www.w3.org/2000/svg" xmlns:xlink="http://www.w3.org/1999/xlink" x="0px" y="0px"
	 viewBox="0 0 383.839 54.004" enable-background="new 0 0 383.839 54.004" xml:space="preserve">
<g>
	<path fill="#FFFFFF" d="M41.691,24.698c0,4.969-7.633,12.529-16.633,12.529c-5.112,0-8.137-2.448-8.137-7.129
		c0-5.472,6.265-15.337,6.265-18.217c0-0.72-0.144-1.152-0.936-1.152c-5.761,0-12.385,15.698-12.673,24.771
		c0,0-1.368,0.72-3.168,0.72C3.24,36.219,0,34.563,0,30.098c0-8.064,5.833-16.129,5.833-27.794c0,0,2.016-0.792,3.816-0.792
		c3.6-0.288,6.552,2.809,5.904,7.345c0.288-0.432,4.68-8.497,11.737-8.497c4.464,0,7.129,2.808,7.129,7.345
		c0,6.984-6.48,14.833-6.48,18.361c0,1.224,0.72,1.656,1.728,1.656c3.456,0,7.057-4.32,8.785-7.921
		C39.963,19.945,41.691,20.954,41.691,24.698z"/>
	<path fill="#FFFFFF" d="M79.852,24.698c0,4.969-7.128,12.529-16.129,12.529c-6.552,0-7.417-4.249-7.417-4.249
		s-2.808,4.104-10.009,4.104S35.928,31.827,35.928,25.13C35.928,11.449,47.233,0,61.346,0c9.361,0,11.161,3.96,11.161,7.417
		c0,1.152-0.72,2.448-0.72,2.448s-3.096-2.088-10.729-2.088c-8.281,0-15.193,7.921-15.193,17.354c0,2.304,1.008,3.601,2.808,3.601
		c5.257,0,7.705-7.417,9.433-13.825c1.152-4.033,3.96-5.329,6.696-5.329c2.592,0,3.889,0.648,3.889,0.648
		c-2.953,9.793-3.889,12.025-3.889,14.185c0,2.592,1.224,3.313,3.168,3.313c3.456,0,7.201-4.32,8.641-7.921
		C78.195,19.945,79.852,20.954,79.852,24.698z"/>
	<path fill="#FFFFFF" d="M113.691,19.658c1.512,0.216,3.096,1.44,3.096,4.752c0,4.465-9.937,12.241-25.85,12.241
		c-4.464,0-6.984-0.864-6.984-4.896c0-3.24,2.304-4.248,2.304-4.248s0.216,1.296,3.024,1.296c5.905,0,9.577-10.441,9.577-15.985
		c0-2.376-1.224-3.96-3.097-3.96c-5.76,0-9.504,8.281-11.017,14.833C81.288,38.739,79.2,54.004,71.783,54.004
		c-2.664,0-4.248-1.512-4.248-3.96c0-10.369,11.233-26.282,11.233-48.46c0,0,1.512-1.152,3.816-1.152
		c2.376,0,6.121,1.296,6.121,5.329c0,0,2.664-5.4,9.577-5.4c6.984,0,10.225,5.112,10.225,11.881c0,4.896-1.584,9.937-4.032,14.473
		C108.723,24.626,112.755,21.242,113.691,19.658z"/>
	<path fill="#FFFFFF" d="M150.626,19.658c1.512,0.216,3.096,1.44,3.096,4.752c0,4.465-9.937,12.241-25.85,12.241
		c-4.464,0-6.984-0.864-6.984-4.896c0-3.24,2.304-4.248,2.304-4.248s0.216,1.296,3.024,1.296c5.905,0,9.577-10.441,9.577-15.985
		c0-2.376-1.224-3.96-3.097-3.96c-5.76,0-9.504,8.281-11.017,14.833c-3.457,15.049-5.544,30.314-12.961,30.314
		c-2.664,0-4.248-1.512-4.248-3.96c0-10.369,11.233-26.282,11.233-48.46c0,0,1.512-1.152,3.816-1.152c2.376,0,6.12,1.296,6.12,5.329
		c0,0,2.665-5.4,9.577-5.4c6.984,0,10.225,5.112,10.225,11.881c0,4.896-1.584,9.937-4.032,14.473
		C145.658,24.626,149.69,21.242,150.626,19.658z"/>
	<path fill="#FFFFFF" d="M155.158,53.428c-6.192,0-10.441-3.6-10.441-7.849c0-8.497,10.225-11.233,21.962-12.097
		c0.144-0.792,1.152-5.761,0.792-4.608c0,0-4.608,4.32-10.945,4.32c-4.32,0-7.92-2.304-7.92-8.353
		c0-8.064,6.408-14.401,6.336-22.538c0,0,2.016-0.648,3.744-0.648c3.168,0,6.049,1.44,6.049,5.688
		c0,5.544-5.545,12.673-5.545,16.417c0,0.864,0.432,1.584,1.44,1.584c6.553,0,12.817-14.545,12.889-23.33
		c0,0,1.225-0.648,3.169-0.648c3.168,0,6.12,1.584,6.12,5.761c0,6.121-5.473,16.201-6.696,24.266
		c6.192-2.808,9.505-7.128,11.161-11.665c1.512,0.216,3.528,1.512,3.528,4.968c0,5.544-6.409,12.817-16.058,15.049
		C172.368,48.316,164.591,53.428,155.158,53.428z M154.798,44.932c0,0.576,0.792,0.864,2.16,0.864c3.744,0,7.057-3.024,7.777-4.464
		C160.199,41.476,154.798,42.987,154.798,44.932z"/>
</g>
<g>
	<path fill="#FF4B4B" d="M234.198,24.698c0,4.969-7.633,12.529-16.633,12.529c-5.112,0-8.137-2.448-8.137-7.129
		c0-5.472,6.265-15.337,6.265-18.217c0-0.72-0.144-1.152-0.936-1.152c-5.761,0-12.385,15.698-12.673,24.771
		c0,0-1.368,0.72-3.168,0.72c-3.168,0-6.408-1.656-6.408-6.121c0-8.064,5.833-16.129,5.833-27.794c0,0,2.016-0.792,3.816-0.792
		c3.6-0.288,6.552,2.809,5.904,7.345c0.288-0.432,4.68-8.497,11.737-8.497c4.464,0,7.129,2.808,7.129,7.345
		c0,6.984-6.48,14.833-6.48,18.361c0,1.224,0.72,1.656,1.728,1.656c3.456,0,7.057-4.32,8.785-7.921
		C232.47,19.945,234.198,20.954,234.198,24.698z"/>
	<path fill="#FF4B4B" d="M272.358,24.698c0,4.969-7.128,12.529-16.129,12.529c-6.552,0-7.417-4.249-7.417-4.249
		s-2.808,4.104-10.009,4.104s-10.369-5.256-10.369-11.953c0-13.681,11.305-25.13,25.418-25.13c9.361,0,11.161,3.96,11.161,7.417
		c0,1.152-0.72,2.448-0.72,2.448s-3.096-2.088-10.729-2.088c-8.281,0-15.193,7.921-15.193,17.354c0,2.304,1.008,3.601,2.808,3.601
		c5.257,0,7.705-7.417,9.433-13.825c1.152-4.033,3.96-5.329,6.696-5.329c2.592,0,3.889,0.648,3.889,0.648
		c-2.953,9.793-3.889,12.025-3.889,14.185c0,2.592,1.224,3.313,3.168,3.313c3.456,0,7.201-4.32,8.641-7.921
		C270.702,19.945,272.358,20.954,272.358,24.698z"/>
	<path fill="#FF4B4B" d="M306.197,19.658c1.512,0.216,3.096,1.44,3.096,4.752c0,4.465-9.937,12.241-25.85,12.241
		c-4.464,0-6.984-0.864-6.984-4.896c0-3.24,2.304-4.248,2.304-4.248s0.216,1.296,3.024,1.296c5.905,0,9.577-10.441,9.577-15.985
		c0-2.376-1.224-3.96-3.097-3.96c-5.76,0-9.504,8.281-11.017,14.833c-3.457,15.049-5.544,30.314-12.961,30.314
		c-2.664,0-4.248-1.512-4.248-3.96c0-10.369,11.233-26.282,11.233-48.46c0,0,1.512-1.152,3.816-1.152
		c2.376,0,6.121,1.296,6.121,5.329c0,0,2.664-5.4,9.577-5.4c6.984,0,10.225,5.112,10.225,11.881c0,4.896-1.584,9.937-4.032,14.473
		C301.229,24.626,305.261,21.242,306.197,19.658z"/>
	<path fill="#FF4B4B" d="M343.132,19.658c1.512,0.216,3.096,1.44,3.096,4.752c0,4.465-9.937,12.241-25.85,12.241
		c-4.464,0-6.984-0.864-6.984-4.896c0-3.24,2.304-4.248,2.304-4.248s0.216,1.296,3.024,1.296c5.905,0,9.577-10.441,9.577-15.985
		c0-2.376-1.224-3.96-3.097-3.96c-5.76,0-9.504,8.281-11.017,14.833c-3.457,15.049-5.544,30.314-12.961,30.314
		c-2.664,0-4.248-1.512-4.248-3.96c0-10.369,11.233-26.282,11.233-48.46c0,0,1.512-1.152,3.816-1.152c2.376,0,6.12,1.296,6.12,5.329
		c0,0,2.665-5.4,9.577-5.4c6.984,0,10.225,5.112,10.225,11.881c0,4.896-1.584,9.937-4.032,14.473
		C338.164,24.626,342.196,21.242,343.132,19.658z"/>
	<path fill="#FF4B4B" d="M347.665,53.428c-6.192,0-10.441-3.6-10.441-7.849c0-8.497,10.225-11.233,21.962-12.097
		c0.144-0.792,1.152-5.761,0.792-4.608c0,0-4.608,4.32-10.945,4.32c-4.32,0-7.92-2.304-7.92-8.353
		c0-8.064,6.408-14.401,6.336-22.538c0,0,2.016-0.648,3.744-0.648c3.168,0,6.049,1.44,6.049,5.688
		c0,5.544-5.545,12.673-5.545,16.417c0,0.864,0.432,1.584,1.44,1.584c6.553,0,12.817-14.545,12.889-23.33
		c0,0,1.225-0.648,3.169-0.648c3.168,0,6.12,1.584,6.12,5.761c0,6.121-5.473,16.201-6.696,24.266
		c6.192-2.808,9.505-7.128,11.161-11.665c1.512,0.216,3.528,1.512,3.528,4.968c0,5.544-6.409,12.817-16.058,15.049
		C364.875,48.316,357.098,53.428,347.665,53.428z M347.305,44.932c0,0.576,0.792,0.864,2.16,0.864c3.744,0,7.057-3.024,7.777-4.464
		C352.705,41.476,347.305,42.987,347.305,44.932z"/>
</g>
</svg>
