<?xml version="1.0" encoding="utf-8"?>
<!-- Generator: Adobe Illustrator 17.1.0, SVG Export Plug-In . SVG Version: 6.00 Build 0)  -->
<!DOCTYPE svg PUBLIC "-//W3C//DTD SVG 1.1//EN" "http://www.w3.org/Graphics/SVG/1.1/DTD/svg11.dtd">
<svg version="1.1" id="Calque_1" xmlns="http://www.w3.org/2000/svg" xmlns:xlink="http://www.w3.org/1999/xlink" x="0px" y="0px"
	 viewBox="0 0 74.293 71.435" enable-background="new 0 0 74.293 71.435" xml:space="preserve">
<g>
	<path fill="#FF4B4B" d="M74.293,67.149c0,2.367-1.92,4.286-4.286,4.286H4.286C1.92,71.435,0,69.516,0,67.149V52.862
		c0-2.366,1.92-4.286,4.286-4.286h19.064c1.206,3.304,4.375,5.715,8.081,5.715h11.43c3.706,0,6.875-2.411,8.081-5.715h19.064
		c2.366,0,4.286,1.92,4.286,4.286V67.149z M57.148,25.717h-11.43v20.002c0,1.563-1.295,2.857-2.857,2.857h-11.43
		c-1.563,0-2.857-1.295-2.857-2.857V25.717h-11.43c-1.161,0-2.188-0.714-2.634-1.786c-0.446-1.027-0.223-2.277,0.625-3.081
		L35.137,0.848C35.673,0.268,36.432,0,37.146,0s1.473,0.268,2.009,0.848L59.158,20.85c0.848,0.804,1.071,2.054,0.625,3.081
		C59.336,25.002,58.309,25.717,57.148,25.717z M54.291,60.006c-1.563,0-2.857,1.295-2.857,2.857s1.295,2.857,2.857,2.857
		s2.857-1.295,2.857-2.857S55.854,60.006,54.291,60.006z M65.721,60.006c-1.563,0-2.857,1.295-2.857,2.857s1.295,2.857,2.857,2.857
		s2.857-1.295,2.857-2.857S67.283,60.006,65.721,60.006z"/>
</g>
</svg>
